<svg xmlns="http://www.w3.org/2000/svg" viewBox="0 0 250 100">
	<style>
		tspan { white-space:pre }

	</style>
	<g id="Layer 1">
		<path id="Path 1" class="shp0" d="M46.55 5C46.25 6.1 46.56 7.7 47.25 8.54C47.94 9.39 49.74 10.07 51.25 10.04C52.76 10.02 55.46 10.74 57.25 11.65C59.04 12.55 63.42 15.71 67 18.67C70.59 21.65 75.29 24.54 77.5 25.14C79.7 25.74 84.42 26.03 88 25.8C92.53 25.5 95.71 24.64 98.5 22.96C100.7 21.64 104.3 18.88 106.5 16.85C108.7 14.81 112.19 12.44 114.25 11.57C116.31 10.71 119.69 10.01 121.75 10.02C123.81 10.03 127.3 10.93 129.5 12.02C131.7 13.1 136.2 16.26 139.5 19.03C142.8 21.8 147.3 24.55 149.5 25.14C151.7 25.74 156.43 26.04 160 25.81C165.1 25.49 167.57 24.72 171.5 22.26C174.25 20.54 177.63 17.93 179 16.47C180.38 15.01 182.85 13.12 184.5 12.28C186.15 11.44 189.25 10.47 191.39 10.13C193.53 9.78 195.73 8.83 196.29 8C196.85 7.17 197.01 5.71 196.65 4.75C196.17 3.45 194.9 3.01 191.75 3.02C189.41 3.03 185.47 3.98 183 5.12C180.53 6.26 176.25 9.18 173.5 11.6C170.75 14.03 167.04 16.69 165.25 17.51C163.46 18.33 159.97 19 157.5 19C155.03 19 151.99 18.61 150.75 18.14C149.51 17.66 145.57 14.88 142 11.94C138.43 9.01 133.7 5.81 131.5 4.83C129.1 3.76 125.09 3.04 121.5 3.04C117.55 3.04 113.96 3.75 111 5.11C108.53 6.25 104.45 9.05 101.95 11.34C99.45 13.63 95.74 16.29 93.7 17.25C91.67 18.21 87.97 19 85.5 19C83.03 19 79.54 18.26 77.75 17.35C75.96 16.45 72.25 13.78 69.5 11.43C66.75 9.07 62.47 6.23 60 5.1C57.53 3.97 53.61 3.03 51.3 3.02C47.95 3 47 3.4 46.55 5ZM47.21 39.42C46.55 40.29 46.23 41.9 46.5 43C46.85 44.4 48.12 45.17 50.75 45.58C52.81 45.89 55.63 46.56 57 47.07C58.38 47.58 62.42 50.47 66 53.5C70.16 57.03 74.3 59.56 77.5 60.52C80.25 61.34 83.85 62.02 85.5 62.02C87.15 62.02 90.75 61.36 93.5 60.56C96.74 59.62 100.61 57.29 104.5 53.92C107.8 51.07 111.74 48.12 113.25 47.37C114.76 46.62 118.47 46 121.5 46C124.53 46 128.24 46.62 129.75 47.38C131.26 48.14 135.2 51.07 138.5 53.89C142.27 57.12 146.36 59.58 149.5 60.52C152.25 61.35 155.85 62.02 157.5 62.02C159.15 62.02 162.75 61.36 165.5 60.56C168.79 59.59 172.72 57.19 177 53.53C180.57 50.47 184.63 47.58 186 47.1C187.38 46.62 190.3 45.84 192.49 45.37C195.11 44.8 196.57 43.9 196.74 42.75C196.88 41.79 196.44 40.28 195.75 39.4C194.77 38.15 193.53 37.95 190 38.5C187.53 38.89 183.93 40 182 40.97C180.07 41.94 176.25 44.66 173.5 47C170.75 49.34 167.15 51.94 165.5 52.78C163.85 53.61 160.25 54.3 157.5 54.3C154.75 54.3 151.15 53.58 149.5 52.71C147.85 51.84 144.25 49.25 141.5 46.95C138.75 44.66 134.7 41.84 132.5 40.7C129.56 39.17 126.64 38.62 121.5 38.62C116.32 38.62 113.46 39.17 110.5 40.73C108.3 41.89 104.03 44.95 101 47.53C97.97 50.12 94.6 52.69 93.5 53.25C92.4 53.81 89.47 54.31 87 54.36C84.53 54.41 81.26 54.12 79.75 53.72C78.24 53.33 74.19 50.71 70.75 47.91C67.31 45.11 62.92 42.01 61 41.01C59.08 40.02 55.46 38.9 52.96 38.52C49.42 37.98 48.16 38.18 47.21 39.42ZM46.55 76C46.25 77.1 46.56 78.7 47.25 79.54C47.94 80.39 49.74 81.07 51.25 81.04C52.76 81.02 55.46 81.62 57.25 82.39C59.04 83.15 62.97 85.9 66 88.51C69.03 91.11 72.85 93.97 74.5 94.86C76.55 95.96 80.04 96.47 85.5 96.47C91.47 96.47 94.39 95.99 97 94.57C98.92 93.52 103.42 90.26 107 87.31C110.98 84.04 114.86 81.73 117 81.35C118.93 81.02 122.3 80.93 124.5 81.16C127.29 81.45 130.27 82.93 134.34 86.04C137.54 88.49 142.04 91.75 144.34 93.29C147.27 95.25 150.27 96.24 154.5 96.65C157.8 96.96 162.41 96.72 164.75 96.11C167.09 95.5 170.91 93.44 173.25 91.53C175.59 89.62 179.53 86.63 182 84.87C184.65 82.99 188.3 81.44 190.89 81.09C193.31 80.77 195.74 79.82 196.29 79C196.85 78.18 197.01 76.71 196.65 75.75C196.17 74.45 194.9 74.01 191.75 74.02C189.41 74.03 185.47 74.97 183 76.1C180.53 77.23 176.25 80.1 173.5 82.49C170.75 84.87 166.81 87.54 164.75 88.41C162.69 89.29 159.43 90 157.5 90C155.57 90 152.31 89.29 150.25 88.41C148.19 87.54 144.25 84.87 141.5 82.49C138.75 80.1 134.47 77.23 132 76.1C129.06 74.75 125.42 74.04 121.5 74.04C117.58 74.04 113.94 74.75 111 76.1C108.53 77.23 104.25 80.1 101.5 82.49C98.75 84.87 94.81 87.54 92.75 88.41C90.69 89.29 87.31 90 85.25 90.01C83.19 90.01 79.92 89.23 77.99 88.26C76.06 87.29 72.24 84.61 69.49 82.31C66.75 80 62.47 77.2 60 76.08C57.53 74.96 53.61 74.03 51.3 74.02C47.95 74 47 74.4 46.55 76Z" />
	</g>
</svg>